# xmcd
#
# Track frame offsets: 
#        150
#        29917
#        72460
#        95307
#        127522
#        155347
#        182092
#        217237
#        259417
#        285180
#
# Disc length: 4226 seconds
#
# Revision: 3
# Processed by: cddbd v1.5.2PL0 Copyright (c) Steve Scherf et al.
# Submitted via: ExactAudioCopy v0.99pb3
#
DISCID=9010800a
DTITLE=Marillion - Anorak In The UK Live
DYEAR=2002
DGENRE=Progressive Rock
TTITLE0=Separated Out
TTITLE1=Quartz
TTITLE2=Map Of The World
TTITLE3=Out Of This World
TTITLE4=Between You And Me
TTITLE5=The Great Escape
TTITLE6=King
TTITLE7=If My Heart Were A Ball..
TTITLE8=Waiting To Happen
TTITLE9=Easter
EXTD=YEAR: 2002 ID3G: 13
EXTT0=
EXTT1=
EXTT2=
EXTT3=
EXTT4=
EXTT5=
EXTT6=
EXTT7=
EXTT8=
EXTT9=
PLAYORDER=
